#Comment line ignore any data following # character 
#Hierarchical Translation and Rotation (.htr) file 
[Header]	
#Header keywords are followed by a single value 
FileType HTR		#Single word string
DataType HTRS		#Translation followed by rotation and scale data
FileVersion 1		#integer
NumSegments 25		#integer
NumFrames 5		#integer
DataFrameRate 30		#integer, data frame rate in this file
EulerRotationOrder ZYX
CalibrationUnits mm
RotationUnits Degrees
GlobalAxisofGravity Y
BoneLengthAxis Y
ScaleFactor 1.00
[SegmentNames&Hierarchy]
#CHILD	PARENT
BN_Tick_Root GLOBAL
BN_Torso BN_Tick_Root
BN_L_Leg_Front01 BN_Torso
BN_L_Leg_Rear01 BN_Torso
BN_MetalTop BN_Torso
BN_Neck BN_Torso
BN_R_Leg_Front01 BN_Torso
BN_R_Leg_Rear01 BN_Torso
BN_Sack BN_Torso
BN_L_Leg_Front02 BN_L_Leg_Front01
BN_L_Leg_Front03 BN_L_Leg_Front02
BN_L_Leg_Rear02 BN_L_Leg_Rear01
BN_L_Leg_Rear03 BN_L_Leg_Rear02
BN_Head BN_Neck
BN_Needle BN_Head
BN_R_Leg_Front02 BN_R_Leg_Front01
BN_R_Leg_Front03 BN_R_Leg_Front02
BN_R_Leg_Rear02 BN_R_Leg_Rear01
BN_R_Leg_Rear03 BN_R_Leg_Rear02
BN_SackDef01 BN_Sack
BN_SackDef02 BN_Sack
BN_SackDef03 BN_Sack
BN_SackDef04 BN_Sack
BN_SackDef05 BN_Sack
BN_SackDef06 BN_Sack
[BasePosition]
#SegmentName Tx, Ty, Tz, Rx, Ry, Rz, BoneLength
BN_Tick_Root 0.000000 0.000000 0.000000 -90.000000 0.000000 0.000000 10.000000 
BN_Torso 0.000000 0.000000 0.000000 0.000000 0.000000 0.000000 10.000000 
BN_L_Leg_Front01 0.000000 0.000000 0.000000 0.000000 0.000000 0.000000 10.000000 
BN_L_Leg_Rear01 0.000000 0.000000 0.000000 0.000000 0.000000 0.000000 10.000000 
BN_MetalTop 0.000000 0.000000 0.000000 0.000000 0.000000 0.000000 10.000000 
BN_Neck 0.000000 0.000000 0.000000 0.000000 0.000000 0.000000 10.000000 
BN_R_Leg_Front01 0.000000 0.000000 0.000000 0.000000 0.000000 0.000000 10.000000 
BN_R_Leg_Rear01 0.000000 0.000000 0.000000 0.000000 0.000000 0.000000 10.000000 
BN_Sack 0.000000 0.000000 0.000000 0.000000 0.000000 0.000000 10.000000 
BN_L_Leg_Front02 0.000000 0.000000 0.000000 0.000000 0.000000 0.000000 10.000000 
BN_L_Leg_Front03 0.000000 0.000000 0.000000 0.000000 0.000000 0.000000 10.000000 
BN_L_Leg_Rear02 0.000000 0.000000 0.000000 0.000000 0.000000 0.000000 10.000000 
BN_L_Leg_Rear03 0.000000 0.000000 0.000000 0.000000 0.000000 0.000000 10.000000 
BN_Head 0.000000 0.000000 0.000000 0.000000 0.000000 0.000000 10.000000 
BN_Needle 0.000000 0.000000 0.000000 0.000000 0.000000 0.000000 10.000000 
BN_R_Leg_Front02 0.000000 0.000000 0.000000 0.000000 0.000000 0.000000 10.000000 
BN_R_Leg_Front03 0.000000 0.000000 0.000000 0.000000 0.000000 0.000000 10.000000 
BN_R_Leg_Rear02 0.000000 0.000000 0.000000 0.000000 0.000000 0.000000 10.000000 
BN_R_Leg_Rear03 0.000000 0.000000 0.000000 0.000000 0.000000 0.000000 10.000000 
BN_SackDef01 0.000000 0.000000 0.000000 0.000000 0.000000 0.000000 10.000000 
BN_SackDef02 0.000000 0.000000 0.000000 0.000000 0.000000 0.000000 10.000000 
BN_SackDef03 0.000000 0.000000 0.000000 0.000000 0.000000 0.000000 10.000000 
BN_SackDef04 0.000000 0.000000 0.000000 0.000000 0.000000 0.000000 10.000000 
BN_SackDef05 0.000000 0.000000 0.000000 0.000000 0.000000 0.000000 10.000000 
BN_SackDef06 0.000000 0.000000 0.000000 0.000000 0.000000 0.000000 10.000000 
#Beginning of Data. Separated by tabs
#Fr	Tx	Ty	Tz	Rx	Ry	Rz	SF
[BN_Tick_Root]
33 0.000000 0.000000 0.000000 0.000000 0.000000 -0.000020 0.000000
34 0.000000 0.000000 0.000000 0.000000 0.000000 -0.000020 0.000000
35 0.000000 0.000000 0.000000 0.000000 0.000000 -0.000020 0.000000
36 0.000000 0.000000 0.000000 0.000000 0.000000 -0.000020 0.000000
37 0.000000 0.000000 0.000000 0.000000 0.000000 -0.000020 0.000000
[BN_Torso]
33 3.095386 20.697638 212.099854 -14.807124 -3.760223 2.805928 213.129822
34 3.095386 20.697638 212.099854 -14.807124 -3.760223 2.805928 213.129822
35 3.095387 20.697639 212.099854 -14.807124 -3.760223 2.805928 213.129822
36 3.095387 20.697639 212.099854 -14.807124 -3.760221 2.805921 213.129822
37 3.095387 20.697639 212.099838 -14.451796 -3.117656 1.120273 213.129807
[BN_L_Leg_Front01]
33 -68.477791 10.734189 -26.804373 -60.691093 48.113861 135.143570 74.316254
34 -68.477791 10.734189 -26.804373 -60.691093 48.113861 135.143570 74.316254
35 -68.477791 10.734189 -26.804373 -60.691093 48.113861 135.143570 74.316254
36 -68.477791 10.734189 -26.804373 -60.691093 48.113861 135.143570 74.316254
37 -68.477791 10.734189 -26.804373 -61.619213 49.524704 136.288712 74.316254
[BN_L_Leg_Rear01]
33 -72.133743 -73.994843 -18.268616 34.832249 60.114059 -159.548447 104.939293
34 -72.133743 -73.994843 -18.268616 34.832249 60.114059 -159.548447 104.939293
35 -72.133743 -73.994843 -18.268616 34.832249 60.114059 -159.548447 104.939293
36 -72.133743 -73.994843 -18.268616 34.832268 60.114079 -159.548447 104.939293
37 -72.133743 -73.994843 -18.268616 36.223995 61.157131 -156.127579 104.939293
[BN_MetalTop]
33 0.000008 13.737477 26.403606 92.251350 -17.585705 -97.417923 29.763546
34 0.000008 13.737477 26.403606 92.251366 -17.585709 -97.417938 29.763546
35 0.000008 13.737477 26.403606 92.251366 -17.585709 -97.417938 29.763546
36 0.000008 13.737477 26.403606 92.251366 -17.585709 -97.417938 29.763546
37 0.000008 13.737477 26.403606 92.251366 -17.585709 -97.417938 29.763546
[BN_Neck]
33 0.000014 95.233284 10.002091 -89.999672 -65.297531 89.999657 95.757088
34 0.000014 95.233284 10.002091 -89.999672 -65.297531 89.999657 95.757088
35 0.000014 95.233284 10.002091 -89.999672 -65.297531 89.999657 95.757088
36 0.000014 95.233284 10.002091 -89.999672 -65.297531 89.999657 95.757088
37 0.000014 95.233284 10.002091 -89.999672 -65.297531 89.999657 95.757088
[BN_R_Leg_Front01]
33 68.477768 10.734107 -26.804314 69.565002 47.724842 50.562317 74.316193
34 68.477768 10.734107 -26.804314 69.565002 47.724842 50.562317 74.316193
35 68.477768 10.734107 -26.804314 69.565002 47.724842 50.562317 74.316193
36 68.477768 10.734107 -26.804314 69.564980 47.724827 50.562305 74.316193
37 68.477768 10.734107 -26.804314 68.069878 46.905651 51.138218 74.316193
[BN_R_Leg_Rear01]
33 72.133751 -73.994873 -18.268644 44.969955 77.152222 64.247559 104.939331
34 72.133751 -73.994873 -18.268644 44.970001 77.152237 64.247612 104.939331
35 72.133751 -73.994873 -18.268644 44.969955 77.152222 64.247559 104.939331
36 72.133751 -73.994873 -18.268644 44.969967 77.152237 64.247597 104.939331
37 72.133751 -73.994873 -18.268644 38.096035 76.634460 60.929169 104.939331
[BN_Sack]
33 -0.000000 -78.024918 33.657791 91.379868 -11.014523 -97.199554 84.974907
34 -0.000000 -78.024918 33.657791 91.379883 -11.014522 -97.199577 84.974907
35 -0.000000 -78.024918 33.657791 91.379883 -11.014522 -97.199577 84.974907
36 -0.000000 -78.024918 33.657791 91.379875 -11.014524 -97.199577 84.974907
37 -0.000000 -78.024918 33.657791 91.379875 -11.014524 -97.199577 84.974907
[BN_L_Leg_Front02]
33 142.805023 -0.000015 -0.000104 -0.052933 0.797777 -140.435608 142.805023
34 142.805023 -0.000015 -0.000104 -0.053212 0.797002 -140.435608 142.805023
35 142.805023 -0.000015 -0.000104 -0.053491 0.796226 -140.435608 142.805023
36 142.805023 -0.000015 -0.000104 -0.053770 0.795451 -140.435623 142.805023
37 142.805023 -0.000015 -0.000104 -0.057666 0.802571 -140.867493 142.805023
[BN_L_Leg_Front03]
33 124.143021 -0.000045 0.000007 0.355240 -0.273133 142.609390 124.143021
34 124.143021 -0.000045 0.000007 0.355256 -0.273113 142.602859 124.143021
35 124.143021 -0.000045 0.000007 0.355271 -0.273093 142.596344 124.143021
36 124.143021 -0.000045 0.000007 0.355287 -0.273072 142.589798 124.143021
37 124.143021 -0.000045 0.000007 0.354133 -0.272330 142.854065 124.143021
[BN_L_Leg_Rear02]
33 139.939041 0.000075 -0.000022 0.063273 -0.233496 99.696228 139.939041
34 139.939041 0.000075 -0.000022 0.063273 -0.233496 99.696228 139.939041
35 139.939041 0.000075 -0.000022 0.063273 -0.233496 99.696228 139.939041
36 139.939041 0.000075 -0.000022 0.063273 -0.233496 99.696228 139.939041
37 139.939041 0.000075 -0.000022 0.063933 -0.231047 99.467033 139.939041
[BN_L_Leg_Rear03]
33 142.839615 0.000179 -0.000060 0.000585 -0.002273 -118.879417 142.839615
34 142.839615 0.000179 -0.000060 0.000585 -0.002273 -118.879417 142.839615
35 142.839615 0.000179 -0.000060 0.000585 -0.002273 -118.879417 142.839615
36 142.839615 0.000179 -0.000060 0.000585 -0.002273 -118.879417 142.839615
37 142.839615 0.000179 -0.000060 0.000580 -0.002274 -118.631973 142.839615
[BN_Head]
33 57.062447 -0.000030 0.000000 1.558729 6.305769 -0.328580 57.062447
34 57.062447 -0.000030 0.000000 -8.146450 15.322611 -1.941431 57.062447
35 57.062447 -0.000030 0.000000 -17.864279 24.335604 -3.593557 57.062447
36 57.062447 -0.000030 0.000000 -16.392792 23.254313 -2.603170 57.062447
37 57.062447 -0.000030 0.000000 -13.928081 20.625095 -1.005549 57.062447
[BN_Needle]
33 33.915161 69.677544 -0.000060 0.000003 0.000030 87.896805 77.493217
34 33.915161 69.677544 -0.000060 0.000003 0.000030 87.896805 77.493217
35 33.915161 69.677544 -0.000060 0.000003 0.000030 87.896805 77.493217
36 33.915161 69.677544 -0.000060 0.000003 0.000030 87.896805 77.493217
37 33.915161 69.677544 -0.000060 0.000003 0.000030 87.896805 77.493217
[BN_R_Leg_Front02]
33 142.804947 -0.000060 0.000060 -0.103756 0.544962 116.289406 142.804947
34 142.804947 -0.000060 0.000060 -0.103728 0.544968 116.295242 142.804947
35 142.804947 -0.000060 0.000060 -0.103700 0.544973 116.301064 142.804947
36 142.804947 -0.000060 0.000060 -0.103673 0.544978 116.306877 142.804947
37 142.804947 -0.000060 0.000060 -0.104969 0.540996 115.960457 142.804947
[BN_R_Leg_Front03]
33 124.143005 -0.000060 -0.000156 -0.353681 -0.369282 -124.665161 124.143005
34 124.143005 -0.000060 -0.000156 -0.353664 -0.369298 -124.670273 124.143005
35 124.143005 -0.000060 -0.000156 -0.353648 -0.369313 -124.675377 124.143005
36 124.143005 -0.000060 -0.000156 -0.353631 -0.369329 -124.680504 124.143005
37 124.143005 -0.000060 -0.000156 -0.353942 -0.370602 -124.370865 124.143005
[BN_R_Leg_Rear02]
33 139.939011 -0.000149 0.000015 0.062500 -0.261134 -136.415619 139.939011
34 139.939011 -0.000149 0.000015 0.062500 -0.261134 -136.415619 139.939011
35 139.939011 -0.000149 0.000015 0.062500 -0.261134 -136.415619 139.939011
36 139.939011 -0.000149 0.000015 0.062500 -0.261134 -136.415619 139.939011
37 139.939011 -0.000149 0.000015 0.063433 -0.258558 -137.234192 139.939011
[BN_R_Leg_Rear03]
33 142.839417 0.000075 0.000119 0.002049 -0.001144 148.360916 142.839417
34 142.839417 0.000075 0.000119 0.002049 -0.001144 148.360916 142.839417
35 142.839417 0.000075 0.000119 0.002049 -0.001144 148.360916 142.839417
36 142.839417 0.000075 0.000119 0.002049 -0.001144 148.360931 142.839417
37 142.839417 0.000075 0.000119 0.002045 -0.001153 148.814240 142.839417
[BN_SackDef01]
33 249.782272 -3.760844 42.949425 -128.408218 -44.374973 -11.740845 253.475800
34 249.782272 -3.760844 42.949425 -128.408218 -44.374973 -11.740845 253.475800
35 249.782272 -3.760844 42.949425 -128.408218 -44.374973 -11.740845 253.475800
36 249.782272 -3.760844 42.949425 -128.408218 -44.374973 -11.740845 253.475800
37 249.782272 -3.760844 42.949425 -128.408218 -44.374973 -11.740845 253.475800
[BN_SackDef02]
33 138.789795 -62.131748 45.674385 32.077126 -27.375721 -88.781525 158.773758
34 138.789795 -62.131748 45.674385 32.077126 -27.375721 -88.781525 158.773758
35 138.789795 -62.131748 45.674385 32.077126 -27.375721 -88.781525 158.773758
36 138.789795 -62.131748 45.674385 32.077126 -27.375721 -88.781525 158.773758
37 138.789795 -62.131748 45.674385 32.077126 -27.375721 -88.781525 158.773758
[BN_SackDef03]
33 249.782272 -3.760785 -42.949661 18.144459 44.375008 -11.740894 253.475845
34 249.782272 -3.760785 -42.949661 18.144459 44.375008 -11.740894 253.475845
35 249.782272 -3.760785 -42.949661 18.144459 44.375008 -11.740894 253.475845
36 249.782272 -3.760785 -42.949661 18.144459 44.375008 -11.740894 253.475845
37 249.782272 -3.760785 -42.949661 18.144459 44.375008 -11.740894 253.475845
[BN_SackDef04]
33 138.789780 -62.131645 -45.674473 146.059982 27.375723 -88.781555 158.773743
34 138.789780 -62.131645 -45.674473 146.059982 27.375723 -88.781555 158.773743
35 138.789780 -62.131645 -45.674473 146.059982 27.375723 -88.781555 158.773743
36 138.789780 -62.131645 -45.674473 146.059982 27.375723 -88.781555 158.773743
37 138.789780 -62.131645 -45.674473 146.059982 27.375723 -88.781555 158.773743
[BN_SackDef05]
33 118.790161 46.167137 -63.831196 0.155741 51.314110 90.605110 142.537460
34 118.790161 46.167137 -63.831196 0.155741 51.314110 90.605110 142.537460
35 118.790161 46.167137 -63.831196 0.155741 51.314110 90.605110 142.537460
36 118.790161 46.167137 -63.831196 0.155741 51.314110 90.605110 142.537460
37 118.790161 46.167137 -63.831196 0.155741 51.314110 90.605110 142.537460
[BN_SackDef06]
33 118.790207 46.167194 63.831219 152.058487 -51.314072 90.605019 142.537537
34 118.790207 46.167194 63.831219 152.058487 -51.314072 90.605019 142.537537
35 118.790207 46.167194 63.831219 152.058487 -51.314072 90.605019 142.537537
36 118.790207 46.167194 63.831219 152.058487 -51.314072 90.605019 142.537537
37 118.790207 46.167194 63.831219 152.058487 -51.314072 90.605019 142.537537
